<svg width="64" height="64" viewBox="0 0 64 64" fill="none" xmlns="http://www.w3.org/2000/svg" role="img" aria-label="Aegis">
  <!-- tile -->
  <rect x="0.5" y="0.5" width="63" height="63" rx="14" fill="#0c0d0f"/>
  <rect x="0.5" y="0.5" width="63" height="63" rx="14" stroke="#ffffff" stroke-opacity="0.08"/>
  <!-- 5-validator consensus web -->
  <polygon points="32,18 45.31,27.67 40.23,43.32 23.77,43.32 18.69,27.67"
           fill="none" stroke="#e8e9ea" stroke-width="1.8" stroke-linejoin="round"/>
  <g stroke="#e8e9ea" stroke-opacity="0.3" stroke-width="1">
    <line x1="32" y1="32" x2="32" y2="18"/>
    <line x1="32" y1="32" x2="45.31" y2="27.67"/>
    <line x1="32" y1="32" x2="40.23" y2="43.32"/>
    <line x1="32" y1="32" x2="23.77" y2="43.32"/>
    <line x1="32" y1="32" x2="18.69" y2="27.67"/>
  </g>
  <g fill="#e8e9ea">
    <circle cx="32" cy="18" r="2.4"/>
    <circle cx="45.31" cy="27.67" r="2.4"/>
    <circle cx="40.23" cy="43.32" r="2.4"/>
    <circle cx="23.77" cy="43.32" r="2.4"/>
    <circle cx="18.69" cy="27.67" r="2.4"/>
  </g>
  <!-- consensus core (median) -->
  <circle cx="32" cy="32" r="6.5" fill="#7ecfcf" fill-opacity="0.16"/>
  <circle cx="32" cy="32" r="3.6" fill="#7ecfcf"/>
</svg>
